<?xml version="1.0" standalone="no"?><!DOCTYPE svg PUBLIC "-//W3C//DTD SVG 1.1//EN" "http://www.w3.org/Graphics/SVG/1.1/DTD/svg11.dtd"><svg t="1658587677400" class="icon" viewBox="0 0 1024 1024" version="1.1" xmlns="http://www.w3.org/2000/svg" p-id="2031" xmlns:xlink="http://www.w3.org/1999/xlink" width="200" height="200"><defs><style type="text/css">@font-face { font-family: feedback-iconfont; src: url("//at.alicdn.com/t/font_1031158_u69w8yhxdu.woff2?t=1630033759944") format("woff2"), url("//at.alicdn.com/t/font_1031158_u69w8yhxdu.woff?t=1630033759944") format("woff"), url("//at.alicdn.com/t/font_1031158_u69w8yhxdu.ttf?t=1630033759944") format("truetype"); }
</style></defs><path d="M512 512m-415.492 0a415.492 415.492 0 1 0 830.984 0 415.492 415.492 0 1 0-830.984 0Z" fill="#F1C48B" p-id="2032"></path><path d="M678.488 836.032v-202.668l-78.036-56.772 39.016 90.732v168.708z" fill="#D5E6F7" p-id="2033"></path><path d="M678.488 848.032h-39.016a12 12 0 0 1-12-12v-166.236l-38.04-88.464a12 12 0 0 1 18.08-14.444l78.036 56.768a11.996 11.996 0 0 1 4.94 9.704v202.668a12 12 0 0 1-12 12.004z m-27.02-24h15.016v-184.56l-37.74-27.456 21.744 50.568a12 12 0 0 1 0.976 4.74v156.708z" fill="#504774" p-id="2034"></path><path d="M811.844 284.34a953.508 953.508 0 0 0-599.688 0V376.12h19.968c36.572 0 66.22 29.648 66.22 66.216v-51.32h19.968c36.412 0 65.936 29.392 66.192 65.744h0.024V391.02h78.636c26.972 0 48.836 21.864 48.836 48.836 0-26.972 21.864-48.836 48.836-48.836h78.636v65.744h0.024c0.256-36.352 29.784-65.744 66.192-65.744h19.968v51.32c0-36.572 29.648-66.216 66.22-66.216h19.968V284.34z" fill="#FD919F" p-id="2035"></path><path d="M725.656 260.256v182.084c0-36.572 29.648-66.216 66.22-66.216h19.968V284.34a951.468 951.468 0 0 0-86.188-24.084z" fill="#E0667D" p-id="2036"></path><path d="M488.552 559.96h-80.576a23.448 23.448 0 0 1-23.448-23.448V391.02h78.632c26.972 0 48.836 21.864 48.836 48.836v96.656a23.44 23.44 0 0 1-23.444 23.448z" fill="#FFFFFF" p-id="2037"></path><path d="M616.02 559.96h-80.576a23.448 23.448 0 0 1-23.448-23.448v-96.656c0-26.972 21.864-48.836 48.836-48.836h78.632v145.492a23.44 23.44 0 0 1-23.444 23.448zM702.208 539.512h-62.74v-82.276c0-36.572 29.648-66.216 66.216-66.216h19.968v125.048a23.44 23.44 0 0 1-23.444 23.444z" fill="#FFFFFF" p-id="2038"></path><path d="M788.396 524.616h-62.74v-82.276c0-36.572 29.648-66.216 66.22-66.216h19.968v125.048a23.448 23.448 0 0 1-23.448 23.444z" fill="#D5E6F7" p-id="2039"></path><path d="M298.344 524.616H235.604a23.448 23.448 0 0 1-23.448-23.448V376.12h19.968c36.572 0 66.22 29.648 66.22 66.216v82.28zM384.532 539.512H321.792a23.448 23.448 0 0 1-23.448-23.448V391.02h19.968c36.572 0 66.216 29.648 66.216 66.216v82.276z" fill="#FFFFFF" p-id="2040"></path><path d="M639.496 468.76h-0.024a12 12 0 0 1-12-12v-53.744H560.84c-20.312 0-36.836 16.524-36.836 36.836a12 12 0 1 1-24 0c0-20.312-16.524-36.836-36.836-36.836H396.532v53.744a12 12 0 0 1-12 12 12.024 12.024 0 0 1-12.024-11.916c-0.208-29.68-24.52-53.828-54.192-53.828h-7.968v39.32a12 12 0 1 1-24 0c0-29.896-24.324-54.22-54.22-54.22H212.16a12 12 0 0 1-12-12V284.336a12 12 0 0 1 8.228-11.392C306.496 240.448 408.644 223.968 512 223.968s205.504 16.48 303.616 48.98a12 12 0 0 1 8.228 11.392V376.12a12 12 0 0 1-12 12h-19.968c-29.896 0-54.22 24.324-54.22 54.22a12 12 0 1 1-24 0v-39.32h-7.968c-29.672 0-53.984 24.148-54.192 53.828a12 12 0 0 1-12 11.912zM384.532 379.016h78.632c19.98 0 37.74 9.68 48.836 24.596 11.096-14.916 28.856-24.596 48.836-24.596h78.632a12 12 0 0 1 12 12v9.968c14.084-13.588 33.224-21.968 54.22-21.968h19.968a12 12 0 0 1 11.224 7.752 77.964 77.964 0 0 1 54.996-22.648h7.968V293.044c-93.152-29.916-189.944-45.08-287.844-45.08s-194.692 15.164-287.844 45.08V364.12h7.968c21.416 0 40.852 8.656 54.996 22.648a12 12 0 0 1 11.224-7.752h19.968c20.996 0 40.132 8.38 54.22 21.968v-9.968a12 12 0 0 1 12-12z" fill="#504774" p-id="2041"></path><path d="M488.552 571.96h-80.576c-19.544 0-35.448-15.904-35.448-35.448V391.016a12 12 0 0 1 12-12h78.632c33.544 0 60.836 27.292 60.836 60.836v96.66c0.004 19.544-15.9 35.448-35.444 35.448z m-92.02-168.944v133.496a11.46 11.46 0 0 0 11.448 11.448h80.576a11.46 11.46 0 0 0 11.448-11.448v-96.66c0-20.312-16.524-36.836-36.836-36.836H396.532z" fill="#504774" p-id="2042"></path><path d="M616.02 571.96h-80.576c-19.544 0-35.448-15.904-35.448-35.448v-96.66c0-33.544 27.292-60.836 60.836-60.836h78.632a12 12 0 0 1 12 12v145.496c0.004 19.544-15.896 35.448-35.444 35.448z m-55.184-168.944c-20.312 0-36.836 16.524-36.836 36.836v96.66a11.46 11.46 0 0 0 11.448 11.448h80.576a11.46 11.46 0 0 0 11.448-11.448v-133.496h-66.636z" fill="#504774" p-id="2043"></path><path d="M702.208 551.512h-62.74a12 12 0 0 1-12-12v-82.276c0-43.132 35.088-78.22 78.22-78.22h19.968a12 12 0 0 1 12 12v125.048c0 19.548-15.904 35.448-35.448 35.448z m-50.74-24h50.74a11.46 11.46 0 0 0 11.448-11.448v-113.048h-7.968c-29.896 0-54.22 24.324-54.22 54.22v70.276z" fill="#504774" p-id="2044"></path><path d="M788.396 536.616h-62.74a12 12 0 0 1-12-12v-82.276c0-43.132 35.088-78.22 78.22-78.22h19.968a12 12 0 0 1 12 12v125.048c0 19.544-15.904 35.448-35.448 35.448z m-50.74-24h50.74a11.46 11.46 0 0 0 11.448-11.448V388.12h-7.968c-29.896 0-54.22 24.324-54.22 54.22v70.276zM298.344 536.616H235.604c-19.544 0-35.448-15.904-35.448-35.448V376.12a12 12 0 0 1 12-12h19.968c43.132 0 78.22 35.088 78.22 78.22v82.276a12 12 0 0 1-12 12zM224.156 388.12v113.048a11.46 11.46 0 0 0 11.448 11.448h50.74v-70.276c0-29.896-24.324-54.22-54.22-54.22h-7.968z" fill="#504774" p-id="2045"></path><path d="M384.532 551.512H321.792c-19.544 0-35.448-15.904-35.448-35.448V391.016a12 12 0 0 1 12-12h19.968c43.132 0 78.22 35.088 78.22 78.22v82.276a12 12 0 0 1-12 12z m-74.188-148.496v113.048a11.46 11.46 0 0 0 11.448 11.448h50.74v-70.276c0-29.896-24.324-54.22-54.22-54.22h-7.968z" fill="#504774" p-id="2046"></path><path d="M658.552 649.272h-80.576a23.448 23.448 0 0 1-23.448-23.448v-96.656c0-26.972 21.864-48.836 48.836-48.836H682v145.492a23.444 23.444 0 0 1-23.448 23.448z" fill="#FFFFFF" p-id="2047"></path><path d="M658.552 661.272h-80.576c-19.544 0-35.448-15.904-35.448-35.448v-96.656c0-33.544 27.292-60.836 60.836-60.836H682a12 12 0 0 1 12 12v145.492c0 19.548-15.904 35.448-35.448 35.448z m-55.184-168.94c-20.312 0-36.836 16.524-36.836 36.836v96.656a11.46 11.46 0 0 0 11.448 11.448h80.576a11.46 11.46 0 0 0 11.448-11.448v-133.492h-66.636z" fill="#504774" p-id="2048"></path><path d="M717.504 836.032v-202.668l-78.036-56.772 39.02 90.732v168.708z" fill="#A0D1F2" p-id="2049"></path><path d="M717.504 848.032h-39.016a12 12 0 0 1-12-12v-166.236l-38.04-88.464a12 12 0 0 1 18.08-14.444l78.036 56.768a11.996 11.996 0 0 1 4.94 9.704v202.668a12 12 0 0 1-12 12.004z m-27.016-24h15.016v-184.56l-37.74-27.456 21.744 50.568a12 12 0 0 1 0.976 4.74v156.708z" fill="#504774" p-id="2050"></path></svg>