<?xml version="1.0" standalone="no"?>
<!DOCTYPE svg PUBLIC "-//W3C//DTD SVG 1.1//EN" "http://www.w3.org/Graphics/SVG/1.1/DTD/svg11.dtd">
<svg t="1658587256308" class="icon" viewBox="0 0 1024 1024" version="1.1" xmlns="http://www.w3.org/2000/svg" p-id="1875" xmlns:xlink="http://www.w3.org/1999/xlink" width="200" height="200">
  <path d="M597.02 329.996h-41.776c21.94 0 39.728 17.788 39.728 39.728v83.512a21.74 21.74 0 0 1-21.736 21.74h41.776a21.736 21.736 0 0 0 21.736-21.74V369.728c-0.004-21.944-17.788-39.732-39.728-39.732z" fill="#A0D1F2" p-id="1879"></path>
  <path d="M615.008 486.976h-206.016c-18.6 0-33.74-15.136-33.74-33.74V369.728c0-28.524 23.208-51.728 51.732-51.728h170.036c28.524 0 51.728 23.204 51.728 51.728v83.512c0 18.6-15.14 33.736-33.74 33.736zM426.984 342c-15.288 0-27.732 12.44-27.732 27.728v83.512a9.752 9.752 0 0 0 9.74 9.74h206.016a9.748 9.748 0 0 0 9.74-9.74V369.728a27.76 27.76 0 0 0-27.728-27.728h-170.036z" fill="#504774" p-id="1880"></path>
  <path d="M758.528 414.76c22.48-59.64 29.632-133.792-33.732-189.476-59.324-56.2-165.252-27.552-200.796-15.688a37.788 37.788 0 0 1-24 0c-35.54-11.864-141.472-40.512-200.796 15.688C235.84 280.972 242.992 355.12 265.472 414.76h121.78V369.724c0-21.94 17.788-39.728 39.728-39.728h170.036c21.94 0 39.728 17.788 39.728 39.728v45.036h121.784z" fill="#FFFFFF" p-id="1881"></path>
  <path d="M724.796 225.284c-32.292-30.592-78.376-36.02-119.416-32.724 28.976 2.644 57.536 11.796 79.628 32.724 63.364 55.684 56.216 129.836 33.732 189.476h39.788c22.48-59.64 29.632-133.788-33.732-189.476z" fill="#D5E6F7" p-id="1882"></path>
  <path d="M758.528 426.76h-121.78a12 12 0 0 1-12-12V369.728a27.76 27.76 0 0 0-27.728-27.728h-170.04a27.76 27.76 0 0 0-27.728 27.728v45.036a12 12 0 0 1-12 12H265.472a12 12 0 0 1-11.232-7.768c-31.488-83.544-18.744-153.584 36.872-202.576 25.82-24.368 61.844-36.724 107.08-36.724 43.616 0 84.888 11.604 105.608 18.52a25.948 25.948 0 0 0 16.404 0c20.72-6.916 61.992-18.52 105.604-18.52 45.236 0 81.256 12.356 107.08 36.724 55.612 48.992 68.36 119.032 36.872 202.576a12.004 12.004 0 0 1-11.232 7.764z m-109.78-24h101.36c24.52-70.88 13.356-127.52-33.232-168.464a7.856 7.856 0 0 1-0.332-0.304c-21.224-20.104-51.752-30.3-90.736-30.3-40.22 0-78.668 10.832-98.008 17.284a49.988 49.988 0 0 1-31.596 0c-19.34-6.456-57.788-17.284-98.012-17.284-38.984 0-69.512 10.196-90.736 30.3l-0.332 0.304C260.54 275.24 249.376 331.884 273.896 402.76h101.36v-33.036c0-28.524 23.204-51.728 51.728-51.728h170.04c28.524 0 51.728 23.204 51.728 51.728v33.036zM512 880c-29.652 0-53.776-24.124-53.776-53.776v-351.248a12 12 0 0 1 12-12h83.556a12 12 0 0 1 12 12v351.248C565.776 855.876 541.652 880 512 880z m-29.776-393.024v339.248c0 16.416 13.36 29.776 29.776 29.776s29.776-13.356 29.776-29.776v-339.248h-59.552z" fill="#504774" p-id="1883"></path>
  <path d="M443.948 572.472a12 12 0 0 1-1.652-23.884l136.072-19.096a12 12 0 1 1 3.336 23.768l-136.072 19.096a12.632 12.632 0 0 1-1.684 0.116zM443.948 647.668a12 12 0 0 1-1.652-23.884l136.072-19.096a12 12 0 1 1 3.336 23.768l-136.072 19.096a12 12 0 0 1-1.684 0.116zM443.948 722.864a12 12 0 0 1-1.652-23.884l136.072-19.096a12 12 0 1 1 3.336 23.768l-136.072 19.096a12 12 0 0 1-1.684 0.116zM443.948 798.064a12 12 0 0 1-1.652-23.884l136.072-19.096a11.988 11.988 0 0 1 13.552 10.216 12 12 0 0 1-10.216 13.552l-136.072 19.096a12.632 12.632 0 0 1-1.684 0.116z" fill="#504774" p-id="1884"></path>
</svg>