<?xml version="1.0" standalone="no"?>
<!DOCTYPE svg PUBLIC "-//W3C//DTD SVG 1.1//EN" "http://www.w3.org/Graphics/SVG/1.1/DTD/svg11.dtd">
<svg t="1658581124868" class="icon" viewBox="0 0 1024 1024" version="1.1" xmlns="http://www.w3.org/2000/svg" p-id="1875" xmlns:xlink="http://www.w3.org/1999/xlink" width="200" height="200">
  <defs></defs>
  <path d="M615.632 904.1c-48.532 0-48.532-59.66-48.532-135.192 0-30.296-9.092-53.712-27.036-69.596-7.68-6.804-17.644-10.548-28.068-10.548s-20.388 3.748-28.068 10.548c-17.94 15.888-27.036 39.304-27.036 69.6 0 75.532 0 135.192-48.532 135.192-56.164 0-64.46-170.624-65.552-204.828-0.48-15.016-5.052-29.424-13.208-41.668-30.72-46.088-92.572-161.664-3.98-239.728 22.004-20.752 52.624-31.272 91.024-31.272 36.8 0 71.596 9.776 89.064 15.604 4.072 1.36 8.504 1.36 12.568 0 17.472-5.828 52.272-15.604 89.072-15.604 38.396 0 69.016 10.524 91.02 31.272 88.588 78.064 26.74 193.64-3.98 239.728-8.156 12.24-12.728 26.652-13.208 41.668-1.088 34.2-9.384 204.824-65.548 204.824zM512 664.76c16.288 0 31.912 5.888 43.98 16.584 16.02 14.188 35.12 40.9 35.12 87.564 0 88.332 5.044 111.192 24.532 111.192 12.836 0 37.704-60.684 41.568-181.592 0.62-19.496 6.58-38.244 17.224-54.212 27.236-40.864 82.532-142.984 7.936-208.536a7.856 7.856 0 0 1-0.332-0.304c-17.408-16.492-42.532-24.852-74.676-24.852-33.408 0-65.384 9.004-81.472 14.372a43.992 43.992 0 0 1-27.76 0c-16.084-5.368-48.06-14.372-81.464-14.372-32.148 0-57.272 8.36-74.68 24.852l-0.332 0.304c-74.592 65.552-19.296 167.672 7.936 208.536 10.644 15.972 16.6 34.716 17.224 54.212 3.864 120.912 28.732 181.592 41.568 181.592 19.488 0 24.532-22.86 24.532-111.192 0-46.668 19.1-73.376 35.12-87.568A66.228 66.228 0 0 1 512 664.76z" fill="#504774" p-id="1879"></path>
  <path d="M718.544 597.488h-102.032a12 12 0 0 1-12-12v-37.732a21.308 21.308 0 0 0-21.284-21.284h-142.452a21.304 21.304 0 0 0-21.284 21.284v37.732a12 12 0 0 1-12 12H305.456a12 12 0 0 1-11.232-7.768c-26.684-70.804-15.828-130.22 31.404-171.84 22.004-20.752 52.628-31.276 91.024-31.276 36.816 0 71.62 9.784 89.092 15.616a19.736 19.736 0 0 0 12.508 0c17.472-5.832 52.28-15.616 89.092-15.616 38.396 0 69.02 10.524 91.024 31.276 47.232 41.624 58.084 101.036 31.404 171.84a11.992 11.992 0 0 1-11.228 7.768z m-90.032-24h81.584c19.66-57.952 10.348-104.26-27.74-137.728a7.856 7.856 0 0 1-0.332-0.304c-17.408-16.492-42.536-24.852-74.68-24.852-33.416 0-65.404 9.008-81.492 14.38a43.9 43.9 0 0 1-27.712 0c-16.084-5.372-48.068-14.38-81.492-14.38-32.144 0-57.272 8.36-74.68 24.852l-0.332 0.304c-38.084 33.468-47.4 79.776-27.74 137.728H395.48v-25.732c0-24.972 20.316-45.284 45.284-45.284h142.452c24.968 0 45.284 20.316 45.284 45.284v25.732z" fill="#504774" p-id="1880"></path>
  <path d="M583.068 298.656L512 194.12l-71.068 104.536L369.86 194.12v168.46h284.28V194.12z" fill="#FD919F" p-id="1881"></path>
  <path d="M605.44 362.58h48.7V194.12L605.44 265.752z" fill="#E0667D" p-id="1882"></path>
  <path d="M512 300.412m-22.06 0a22.06 22.06 0 1 0 44.12 0 22.06 22.06 0 1 0-44.12 0Z" fill="#FFFFFF" p-id="1883"></path>
  <path d="M369.86 172.06m-22.06 0a22.06 22.06 0 1 0 44.12 0 22.06 22.06 0 1 0-44.12 0Z" fill="#D5E6F7" p-id="1884"></path>
  <path d="M512 172.06m-22.06 0a22.06 22.06 0 1 0 44.12 0 22.06 22.06 0 1 0-44.12 0Z" fill="#D5E6F7" p-id="1885"></path>
  <path d="M654.14 172.06m-22.06 0a22.06 22.06 0 1 0 44.12 0 22.06 22.06 0 1 0-44.12 0Z" fill="#A0D1F2" p-id="1886"></path>
  <path d="M654.136 374.58H369.864a12 12 0 0 1-12-12V194.12a12 12 0 0 1 21.924-6.744l61.14 89.936 61.148-89.936a11.988 11.988 0 0 1 19.84 0l61.148 89.936 61.14-89.936a12 12 0 1 1 21.924 6.744v168.46a11.988 11.988 0 0 1-11.992 12z m-272.272-24h260.272V233.116L592.996 305.4a12 12 0 0 1-19.844 0L512 215.464 450.852 305.4a12.004 12.004 0 0 1-19.844 0L381.864 233.116v117.464z" fill="#504774" p-id="1887"></path>
  <path d="M369.864 206.12c-18.78 0-34.064-15.28-34.064-34.06s15.28-34.06 34.064-34.06 34.06 15.28 34.06 34.06-15.28 34.06-34.06 34.06z m0-44.12c-5.548 0-10.064 4.512-10.064 10.06s4.516 10.06 10.064 10.06 10.06-4.512 10.06-10.06-4.512-10.06-10.06-10.06zM512 206.12c-18.78 0-34.06-15.28-34.06-34.06S493.22 138 512 138s34.064 15.28 34.064 34.06-15.284 34.06-34.064 34.06z m0-44.12c-5.548 0-10.06 4.512-10.06 10.06s4.512 10.06 10.06 10.06 10.064-4.512 10.064-10.06S517.548 162 512 162zM512 334.472c-18.78 0-34.06-15.28-34.06-34.06s15.276-34.06 34.06-34.06 34.064 15.28 34.064 34.06-15.284 34.06-34.064 34.06z m0-44.124c-5.548 0-10.06 4.512-10.06 10.06s4.512 10.06 10.06 10.06 10.064-4.512 10.064-10.06-4.516-10.06-10.064-10.06zM654.14 206.12c-18.78 0-34.064-15.28-34.064-34.06s15.28-34.06 34.064-34.06 34.06 15.28 34.06 34.06-15.28 34.06-34.06 34.06z m0-44.12c-5.548 0-10.064 4.512-10.064 10.06s4.516 10.06 10.064 10.06 10.06-4.512 10.06-10.06-4.512-10.06-10.06-10.06z" fill="#504774" p-id="1888"></path>
</svg>