<?xml version="1.0" standalone="no"?><!DOCTYPE svg PUBLIC "-//W3C//DTD SVG 1.1//EN" "http://www.w3.org/Graphics/SVG/1.1/DTD/svg11.dtd"><svg t="1658587830469" class="icon" viewBox="0 0 1024 1024" version="1.1" xmlns="http://www.w3.org/2000/svg" p-id="2354" xmlns:xlink="http://www.w3.org/1999/xlink" width="200" height="200"><defs><style type="text/css">@font-face { font-family: feedback-iconfont; src: url("//at.alicdn.com/t/font_1031158_u69w8yhxdu.woff2?t=1630033759944") format("woff2"), url("//at.alicdn.com/t/font_1031158_u69w8yhxdu.woff?t=1630033759944") format("woff"), url("//at.alicdn.com/t/font_1031158_u69w8yhxdu.ttf?t=1630033759944") format("truetype"); }
</style></defs><path d="M512 512m-415.492 0a415.492 415.492 0 1 0 830.984 0 415.492 415.492 0 1 0-830.984 0Z" fill="#F1C48B" p-id="2355"></path><path d="M453.108 232.428H368.372a13.928 13.928 0 0 1-13.928-13.928v-41a13.928 13.928 0 0 1 13.928-13.928h84.736a13.928 13.928 0 0 1 13.928 13.928v41a13.928 13.928 0 0 1-13.928 13.928z" fill="#A0D1F2" p-id="2356"></path><path d="M453.108 232.428h-17.664V163.572h17.664a13.928 13.928 0 0 1 13.928 13.928v41a13.928 13.928 0 0 1-13.928 13.928z" fill="#7BABF3" p-id="2357"></path><path d="M173 521.428h678v339H173z" fill="#FD919F" p-id="2358"></path><path d="M791 521.428h60v339h-60z" fill="#E0667D" p-id="2359"></path><path d="M851 872.428H173a12 12 0 0 1-12-12v-339a12 12 0 0 1 12-12h678a12 12 0 0 1 12 12v339a12 12 0 0 1-12 12z m-666-24h654v-315H185v315z" fill="#504774" p-id="2360"></path><path d="M686.2 319.828c-48.548-45.996-135.228-22.568-164.348-12.852a31.08 31.08 0 0 1-19.7 0c-29.12-9.716-115.8-33.144-164.348 12.852-79.584 69.94-23.312 175.48 5.74 219.072 9.268 13.904 14.332 30.144 14.864 46.84 3.084 96.528 22.512 188.788 52.332 188.788 32.588 0 35.692-37.244 35.692-120.372 0-39.52 14.82-63.012 30.368-76.784 19.952-17.672 50.444-17.672 70.4 0 15.548 13.772 30.368 37.264 30.368 76.784 0 83.124 3.104 120.372 35.692 120.372 29.82 0 49.248-92.26 52.332-188.788 0.532-16.7 5.6-32.936 14.864-46.84 29.056-43.592 85.328-149.136 5.744-219.072z" fill="#FFFFFF" p-id="2361"></path><path d="M686.2 319.828c-26.836-25.424-65.312-29.62-99.284-26.664 23.316 2.304 46.228 9.812 64.012 26.664 79.584 69.94 23.312 175.48-5.74 219.072-9.268 13.904-14.332 30.144-14.868 46.84-2.536 79.384-16.132 155.828-37.464 180.5 5.012 5.564 11.632 8.288 20.404 8.288 29.82 0 49.248-92.26 52.332-188.788 0.532-16.7 5.6-32.936 14.864-46.84 29.056-43.592 85.328-149.136 5.744-219.072z" fill="#D5E6F7" p-id="2362"></path><path d="M613.26 786.528c-47.696 0-47.696-58.416-47.696-132.372 0-29.516-8.856-52.332-26.324-67.804-7.452-6.6-17.128-10.236-27.244-10.236s-19.788 3.636-27.244 10.236c-17.468 15.472-26.324 38.284-26.324 67.804 0 73.956 0 132.372-47.692 132.372-55.132 0-63.256-166.94-64.328-200.408-0.468-14.624-4.916-28.652-12.856-40.568-30.056-45.096-90.568-158.184-3.844-234.596 21.552-20.324 51.536-30.632 89.12-30.632 36 0 70.032 9.564 87.116 15.264a19.16 19.16 0 0 0 12.104 0c17.084-5.7 51.116-15.264 87.112-15.264 37.584 0 67.572 10.308 89.12 30.632 86.724 76.416 26.212 189.5-3.84 234.596-7.944 11.916-12.392 25.944-12.856 40.568-1.068 33.468-9.196 200.408-64.324 200.408zM512 552.12c15.984 0 31.308 5.78 43.156 16.272 15.696 13.904 34.412 40.072 34.412 85.768 0 86.088 4.872 108.372 23.696 108.372 12.1 0 36.62-60.848 40.336-177.172 0.608-19.1 6.444-37.468 16.876-53.112 26.572-39.868 80.524-139.5 7.804-203.404a7.856 7.856 0 0 1-0.332-0.304c-16.956-16.064-41.44-24.208-72.78-24.208-32.604 0-63.816 8.792-79.516 14.028a43.296 43.296 0 0 1-27.3 0c-15.7-5.24-46.912-14.028-79.516-14.028-31.336 0-55.824 8.148-72.78 24.208l-0.332 0.304c-72.72 63.908-18.768 163.536 7.804 203.408 10.428 15.644 16.26 34.008 16.876 53.108 3.716 116.324 28.236 177.172 40.336 177.172 18.824 0 23.692-22.28 23.692-108.372 0-45.696 18.712-71.864 34.412-85.768A64.996 64.996 0 0 1 512 552.12z" fill="#504774" p-id="2363"></path><path d="M613.26 786.528a12 12 0 0 1-12-12v-286.84c0-49.22-40.044-89.26-89.26-89.26s-89.26 40.04-89.26 89.26v286.84a12 12 0 1 1-24 0v-286.84c0-62.452 50.808-113.26 113.26-113.26 62.452 0 113.26 50.808 113.26 113.26v286.84a12 12 0 0 1-12 12z" fill="#504774" p-id="2364"></path><path d="M613.26 786.528a12 12 0 0 1-12-12v-226.236c0-30.452-27.024-57.364-65.716-65.448a12 12 0 0 1-9.292-14.2 11.976 11.976 0 0 1 14.2-9.292c49.932 10.432 84.808 47.008 84.808 88.94v226.236a12 12 0 0 1-12 12zM410.74 786.528a12 12 0 0 1-12-12v-226.236c0-41.932 34.872-78.508 84.804-88.94a12 12 0 1 1 4.908 23.492c-38.692 8.084-65.716 35-65.716 65.448v226.236a11.992 11.992 0 0 1-11.996 12zM453.108 244.428H368.372a25.96 25.96 0 0 1-25.928-25.928v-41a25.96 25.96 0 0 1 25.928-25.928h84.736a25.96 25.96 0 0 1 25.928 25.928v41a25.96 25.96 0 0 1-25.928 25.928zM368.372 175.572a1.928 1.928 0 0 0-1.928 1.928v41c0 1.064 0.864 1.928 1.928 1.928h84.736a1.928 1.928 0 0 0 1.928-1.928v-41a1.928 1.928 0 0 0-1.928-1.928H368.372z" fill="#504774" p-id="2365"></path><path d="M410.74 601.764a12 12 0 0 1-12-12V232.428a12 12 0 1 1 24 0v357.332a12 12 0 0 1-12 12.004z" fill="#504774" p-id="2366"></path></svg>