<?xml version="1.0" standalone="no"?><!DOCTYPE svg PUBLIC "-//W3C//DTD SVG 1.1//EN" "http://www.w3.org/Graphics/SVG/1.1/DTD/svg11.dtd"><svg t="1658588026969" class="icon" viewBox="0 0 1024 1024" version="1.1" xmlns="http://www.w3.org/2000/svg" p-id="2671" xmlns:xlink="http://www.w3.org/1999/xlink" width="200" height="200"><defs><style type="text/css">@font-face { font-family: feedback-iconfont; src: url("//at.alicdn.com/t/font_1031158_u69w8yhxdu.woff2?t=1630033759944") format("woff2"), url("//at.alicdn.com/t/font_1031158_u69w8yhxdu.woff?t=1630033759944") format("woff"), url("//at.alicdn.com/t/font_1031158_u69w8yhxdu.ttf?t=1630033759944") format("truetype"); }
</style></defs><path d="M512 512m-415.492 0a415.492 415.492 0 1 0 830.984 0 415.492 415.492 0 1 0-830.984 0Z" fill="#F1C48B" p-id="2672"></path><path d="M227.304 632.732h569.392v284.696H227.304z" fill="#FD919F" p-id="2673"></path><path d="M746.308 632.732h50.388v284.696h-50.388z" fill="#E0667D" p-id="2674"></path><path d="M796.696 929.424H227.304a12 12 0 0 1-12-12v-284.696a12 12 0 0 1 12-12h569.392a12 12 0 0 1 12 12v284.696a12 12 0 0 1-12 12z m-557.392-24h545.392v-260.696H239.304v260.696z" fill="#504774" p-id="2675"></path><path d="M658.296 463.424c-40.772-38.628-113.564-18.952-138.02-10.792a26.072 26.072 0 0 1-16.544 0c-24.456-8.16-97.248-27.832-138.024 10.792-66.836 58.736-19.58 147.372 4.82 183.98 7.784 11.676 12.036 25.312 12.484 39.336 2.592 81.068 18.904 158.548 43.948 158.548 27.368 0 29.976-31.28 29.976-101.088 0-33.188 12.444-52.916 25.504-64.484 16.756-14.84 42.364-14.84 59.12 0 13.056 11.564 25.504 31.296 25.504 64.484 0 69.812 2.608 101.088 29.976 101.088 25.044 0 41.36-77.48 43.948-158.548 0.448-14.024 4.704-27.66 12.484-39.336 24.4-36.612 71.66-125.248 4.824-183.98z" fill="#FFFFFF" p-id="2676"></path><path d="M658.296 463.424c-22.536-21.352-54.848-24.876-83.38-22.392 19.584 1.932 38.82 8.24 53.76 22.392 66.836 58.736 19.58 147.372-4.82 183.98-7.784 11.676-12.036 25.312-12.484 39.336-2.132 66.664-13.548 130.864-31.464 151.584 4.212 4.672 9.772 6.96 17.136 6.96 25.044 0 41.36-77.48 43.948-158.548 0.448-14.024 4.704-27.66 12.484-39.336 24.396-36.608 71.656-125.244 4.82-183.976z" fill="#D5E6F7" p-id="2677"></path><path d="M597.04 857.284c-41.976 0-41.976-49.908-41.976-113.088 0-24.216-7.22-42.888-21.456-55.496-5.908-5.236-13.584-8.116-21.604-8.116s-15.696 2.884-21.604 8.112c-14.24 12.612-21.46 31.284-21.46 55.5 0 63.184 0 113.088-41.976 113.088-46.864 0-54.668-130.248-55.944-170.164-0.38-11.916-4.004-23.352-10.476-33.064-25.516-38.288-76.856-134.328-2.924-199.504 18.468-17.404 44.084-26.228 76.144-26.228 30.5 0 59.308 8.092 73.764 12.916a14.16 14.16 0 0 0 8.952 0c14.456-4.824 43.264-12.916 73.764-12.916 32.06 0 57.676 8.824 76.14 26.228 73.924 65.176 22.592 161.216-2.924 199.504-6.468 9.712-10.092 21.144-10.476 33.064-1.276 39.92-9.08 170.164-55.944 170.164zM512 656.584c13.896 0 27.22 5.024 37.52 14.148 13.476 11.936 29.544 34.376 29.544 73.464 0 69.94 3.864 89.088 17.976 89.088 7.508 0 28.704-45.18 31.956-146.928 0.524-16.4 5.536-32.168 14.492-45.608 22.032-33.064 66.812-115.644 6.884-168.308l-0.332-0.304c-13.872-13.14-33.988-19.804-59.796-19.804-27.108 0-53.092 7.32-66.172 11.684a38.332 38.332 0 0 1-24.14 0c-13.076-4.364-39.06-11.684-66.168-11.684-25.812 0-45.928 6.664-59.804 19.804l-0.332 0.304c-59.932 52.664-15.152 135.252 6.884 168.308 8.956 13.44 13.968 29.212 14.496 45.608 3.252 101.752 24.448 146.928 31.956 146.928 14.112 0 17.976-19.148 17.976-89.088 0-39.088 16.068-61.528 29.548-73.464a56.456 56.456 0 0 1 37.512-14.148z" fill="#504774" p-id="2678"></path><path d="M738.1 117.672c14.796 14.796 14.796 38.788 0 53.588L580.8 328.56a37.892 37.892 0 0 1-53.584-53.584l157.3-157.3c14.796-14.8 38.784-14.8 53.584-0.004z" fill="#FD919F" p-id="2679"></path><path d="M527.212 328.56a37.728 37.728 0 0 1-7.636-11.052c13.98 6.388 31.028 3.872 42.536-7.636l157.3-157.3c11.504-11.504 14.024-28.556 7.636-42.536 4 1.828 7.76 4.344 11.052 7.636a37.892 37.892 0 0 1 0 53.584L580.8 328.56a37.896 37.896 0 0 1-53.588 0z" fill="#E0667D" p-id="2680"></path><path d="M554.004 351.656a49.56 49.56 0 0 1-35.272-14.612c-9.424-9.42-14.616-21.948-14.616-35.276s5.192-25.856 14.616-35.276l157.296-157.3a49.56 49.56 0 0 1 35.276-14.612c13.328 0 25.856 5.188 35.276 14.612 19.452 19.452 19.452 51.1 0 70.556L589.28 337.044a49.56 49.56 0 0 1-35.276 14.612z m157.3-233.08a25.736 25.736 0 0 0-18.308 7.584l-157.296 157.296c-4.892 4.892-7.584 11.396-7.584 18.308s2.692 13.416 7.584 18.308 11.392 7.584 18.304 7.584a25.72 25.72 0 0 0 18.308-7.584l157.3-157.3a25.928 25.928 0 0 0 0-36.616 25.7 25.7 0 0 0-18.308-7.58z" fill="#504774" p-id="2681"></path><path d="M412.468 526.384a11.904 11.904 0 0 1-6.432-1.88l-39.436-25.116a12 12 0 0 1-5.556-10.12V405.4a12 12 0 0 1 12-12h72.36l73.328-73.324c4.688-4.688 12.28-4.688 16.968 0s4.688 12.284 0 16.968l-76.84 76.84a12 12 0 0 1-8.484 3.516H385.044v65.28l33.884 21.584a12 12 0 0 1-6.46 22.12zM599.732 321.624a11.96 11.96 0 0 1-8.484-3.516l-53.584-53.584c-4.688-4.684-4.688-12.28 0-16.968s12.28-4.688 16.968 0l53.584 53.584a11.992 11.992 0 0 1-8.484 20.484z" fill="#504774" p-id="2682"></path><path d="M386.948 563.416a12 12 0 0 1-9.884-18.792l25.432-37.036a11.984 11.984 0 0 1 8.28-5.096l61.908-8.4a12 12 0 1 1 3.228 23.78l-56.64 7.684-22.424 32.652a11.98 11.98 0 0 1-9.9 5.208z" fill="#504774" p-id="2683"></path></svg>