<?xml version="1.0" standalone="no"?><!DOCTYPE svg PUBLIC "-//W3C//DTD SVG 1.1//EN" "http://www.w3.org/Graphics/SVG/1.1/DTD/svg11.dtd"><svg t="1658587973471" class="icon" viewBox="0 0 1024 1024" version="1.1" xmlns="http://www.w3.org/2000/svg" p-id="2515" xmlns:xlink="http://www.w3.org/1999/xlink" width="200" height="200"><defs><style type="text/css">@font-face { font-family: feedback-iconfont; src: url("//at.alicdn.com/t/font_1031158_u69w8yhxdu.woff2?t=1630033759944") format("woff2"), url("//at.alicdn.com/t/font_1031158_u69w8yhxdu.woff?t=1630033759944") format("woff"), url("//at.alicdn.com/t/font_1031158_u69w8yhxdu.ttf?t=1630033759944") format("truetype"); }
</style></defs><path d="M512 512m-415.492 0a415.492 415.492 0 1 0 830.984 0 415.492 415.492 0 1 0-830.984 0Z" fill="#F1C48B" p-id="2516"></path><path d="M630.628 619.084c0 62.564-50.716 113.28-113.28 113.28h-10.696c-62.564 0-113.28-50.716-113.28-113.28H173.26v206.488h677.476v-206.488h-220.108z" fill="#FD919F" p-id="2517"></path><path d="M793.052 619.084h57.688v206.488h-57.688z" fill="#E0667D" p-id="2518"></path><path d="M832.872 402.56c-1.496-55.328-65.928-92.344-88.656-103.7a25.72 25.72 0 0 1-11.528-11.528c-11.356-22.728-48.372-87.164-103.7-88.656-87.504-5.644-116.336 89.052-124.844 131.564-2.712 13.56-9.252 26.028-18.712 36.112-54.684 58.296-97.308 123.656-79.856 141.108 19.072 19.072 42.684-0.908 91.332-49.556 23.128-23.128 45.548-28.204 62.708-27.164 22.02 1.336 39.864 19.18 41.196 41.196 1.04 17.16-4.036 39.58-27.164 62.708-48.648 48.648-68.628 72.26-49.556 91.332 17.452 17.452 82.812-25.172 141.108-79.856 10.084-9.46 22.552-16 36.112-18.712 42.512-8.512 137.208-37.344 131.56-124.848z" fill="#FFFFFF" p-id="2519"></path><path d="M832.872 402.56c-0.828-30.584-20.888-55.556-42.5-73.708 12.3 14.992 21.308 32.796 21.856 53.064 5.644 87.504-89.052 116.336-131.564 124.844-13.56 2.712-26.028 9.252-36.112 18.712-47.94 44.972-100.632 81.752-127.556 83.704-0.324 6.192 1.956 11.66 7.088 16.792 17.452 17.452 82.812-25.172 141.108-79.856 10.084-9.46 22.552-16 36.112-18.712 42.52-8.504 137.216-37.34 131.568-124.84z" fill="#D5E6F7" p-id="2520"></path><path d="M535.444 641.936h-0.008c-10.212 0-16.416-4.068-19.828-7.48-13.316-13.312-14.124-29.892-2.404-49.268 9.108-15.056 25.284-32.364 51.952-59.028 16.836-16.836 24.8-34.836 23.672-53.5-0.96-15.832-14.112-28.984-29.944-29.944a56.38 56.38 0 0 0-3.428-0.104c-17.448 0-34.292 8-50.068 23.772-37.464 37.468-61.828 60.216-84.16 60.216-8.944 0-17.072-3.584-24.14-10.66-32.768-32.76 52.632-129.064 79.584-157.8 8.02-8.552 13.448-19.012 15.704-30.256 8.752-43.744 39.82-147.324 137.16-141.196 60.72 1.8 99.86 67.216 113.884 95.284a13.68 13.68 0 0 0 6.156 6.16c28.072 14.02 93.488 53.164 95.284 113.88 6.108 97.076-96.692 128.256-141.2 137.164-11.248 2.252-21.708 7.68-30.252 15.696-44.868 42.084-104.672 87.064-137.964 87.064z m20.012-223.324c1.664 0 3.292 0.052 4.884 0.148 28.196 1.708 50.744 24.256 52.444 52.452 1.08 17.748-3.372 44.632-30.656 71.916-24.74 24.74-40.584 41.584-48.388 54.48-7.928 13.112-4.336 16.704-1.164 19.876 0.152 0.112 1.02 0.452 2.864 0.452 17.716 0.004 65.152-27.672 121.548-80.572 11.816-11.084 26.328-18.596 41.964-21.728 38.348-7.676 127-33.98 121.944-112.304l-0.02-0.448c-1.328-49.204-63.12-83.844-82.028-93.288a37.464 37.464 0 0 1-16.9-16.9c-9.444-18.908-44.088-80.696-93.288-82.024a103.936 103.936 0 0 0-7.076-0.236c-73.312 0-98.324 85.432-105.676 122.164-3.128 15.64-10.644 30.148-21.728 41.964-63.308 67.492-85.808 116.872-80.116 124.416 3.192 3.192 5.416 3.624 7.164 3.624 12.932 0 39.16-25.16 67.192-53.184 20.44-20.444 42.992-30.808 67.036-30.808z" fill="#504774" p-id="2521"></path><path d="M850.74 837.572H173.26a12 12 0 0 1-12-12v-206.488a12 12 0 0 1 12-12h220.108a12 12 0 0 1 12 12c0 55.848 45.432 101.28 101.28 101.28h10.696c55.848 0 101.28-45.432 101.28-101.28a12 12 0 0 1 12-12h220.108a12 12 0 0 1 12 12v206.488a11.988 11.988 0 0 1-11.992 12z m-665.48-24h653.476v-182.488h-196.68c-6.06 63.472-59.68 113.28-124.712 113.28h-10.696c-65.032 0-118.652-49.808-124.712-113.28h-196.68v182.488zM299.064 585.56c-1.152 0-2.324-0.168-3.484-0.52l-70.976-21.508a12.004 12.004 0 0 1-1.044-22.6l46.404-18.876-35.168-34.036a11.992 11.992 0 0 1-2.444-13.876 11.988 11.988 0 0 1 12.428-6.636l50.344 6.944-8.952-50.44a12 12 0 0 1 19.756-11.096l54.848 48.396a12 12 0 0 1-15.88 17.996l-29.088-25.668 5.832 32.856a12.012 12.012 0 0 1-13.456 13.984l-30.32-4.18 22.02 21.312a11.992 11.992 0 0 1-3.82 19.736l-32.06 13.04 38.544 11.68a12 12 0 0 1 8.004 14.964 12.028 12.028 0 0 1-11.488 8.528z" fill="#504774" p-id="2522"></path></svg>