<?xml version="1.0" standalone="no"?><!DOCTYPE svg PUBLIC "-//W3C//DTD SVG 1.1//EN" "http://www.w3.org/Graphics/SVG/1.1/DTD/svg11.dtd"><svg t="1658587790555" class="icon" viewBox="0 0 1024 1024" version="1.1" xmlns="http://www.w3.org/2000/svg" p-id="2197" xmlns:xlink="http://www.w3.org/1999/xlink" width="200" height="200"><defs><style type="text/css">@font-face { font-family: feedback-iconfont; src: url("//at.alicdn.com/t/font_1031158_u69w8yhxdu.woff2?t=1630033759944") format("woff2"), url("//at.alicdn.com/t/font_1031158_u69w8yhxdu.woff?t=1630033759944") format("woff"), url("//at.alicdn.com/t/font_1031158_u69w8yhxdu.ttf?t=1630033759944") format("truetype"); }
</style></defs><path d="M512 512m-415.492 0a415.492 415.492 0 1 0 830.984 0 415.492 415.492 0 1 0-830.984 0Z" fill="#F1C48B" p-id="2198"></path><path d="M756.816 212.58c-38.716-36.68-95.904-39.676-143.384-33.54-6.432 45.88 13.612 101.32 56.956 144.664 39.832 39.832 89.892 60.016 133.348 58.028 13.832-56.58 9.396-119.66-46.92-169.152z" fill="#FFFFFF" p-id="2199"></path><path d="M631.836 362.252c-43.344-43.344-63.388-98.784-56.956-144.664-30.604 3.952-57.188 11.692-72.156 16.688-8.396 2.8-17.444 2.8-25.836 0-38.192-12.744-151.868-43.468-215.54 16.852-104.376 91.724-30.572 230.144 7.528 287.312 12.152 18.232 18.796 39.532 19.496 61.432 4.044 126.596 29.524 247.596 68.632 247.596 42.74 0 46.812-48.848 46.812-157.864 0-51.828 19.436-82.64 39.828-100.7 26.168-23.176 66.16-23.176 92.328 0 20.392 18.06 39.828 48.872 39.828 100.7 0 109.02 4.072 157.864 46.812 157.864 39.108 0 64.584-120.996 68.632-247.596 0.7-21.9 7.344-43.196 19.496-61.432 17.544-26.324 42.644-69.876 54.448-118.16-43.46 1.984-93.516-18.196-133.352-58.028z" fill="#FFFFFF" p-id="2200"></path><path d="M725.416 416.26c-13.876 45.752-43.308 98.032-59.404 122.18-12.152 18.232-18.796 39.532-19.496 61.432-3.356 105.04-21.48 206.152-49.888 237.568 6.48 6.732 14.928 10.028 25.984 10.028 39.108 0 64.584-120.996 68.632-247.596 0.7-21.9 7.344-43.196 19.496-61.432 17.544-26.324 42.644-69.876 54.448-118.16-12.828 0.588-26.232-0.808-39.772-4.02zM756.816 212.58c-35.04-33.196-85.184-38.772-129.596-34.988 30.748 2.956 60.984 12.768 84.436 34.988 54.64 48.016 60.436 108.828 48.1 164.084 14.972 3.968 29.824 5.712 43.976 5.068 13.836-56.58 9.4-119.66-46.916-169.152z" fill="#D5E6F7" p-id="2201"></path><path d="M622.608 859.468c-58.812 0-58.812-71.252-58.812-169.868 0-39.832-12.04-70.688-35.78-91.716-10.46-9.264-24.028-14.372-38.212-14.372-14.176 0-27.748 5.1-38.204 14.368-23.748 21.032-35.784 51.892-35.784 91.72 0 98.616 0 169.868-58.812 169.868-70.312 0-79.776-232.684-80.62-259.216-0.64-19.872-6.688-38.944-17.492-55.156-38.88-58.332-117.216-204.564-5.628-302.836 27.552-26.008 66.024-39.196 114.36-39.196 46.684 0 90.88 12.42 113.068 19.828a28.924 28.924 0 0 0 18.244 0c13.86-4.624 41.96-13.012 74.416-17.208 3.72-0.476 7.436 0.804 10.072 3.464s3.872 6.4 3.352 10.104c-6.14 43.788 14.384 95.332 53.556 134.512 35.744 35.74 82.808 56.452 124.32 54.524a12.012 12.012 0 0 1 12.204 14.84c-12.048 49.28-37.168 93.528-56.12 121.964-10.804 16.216-16.852 35.284-17.488 55.156-0.86 26.536-10.328 259.22-80.64 259.22z m-132.804-299.952c20.052 0 39.272 7.248 54.124 20.404 20.012 17.728 43.868 51.14 43.868 109.684 0 109.444 5.032 145.868 34.812 145.868 20.068 0 51.78-84.036 56.64-235.98 0.776-24.348 8.212-47.756 21.504-67.704 15.956-23.944 36.524-59.664 48.744-99.692-44.184-2.864-89.652-24.864-126.144-61.356-39.884-39.888-62.6-91.82-61.608-139.016a392.216 392.216 0 0 0-55.216 13.936 52.984 52.984 0 0 1-33.432 0c-20.808-6.944-62.184-18.592-105.472-18.592-42.084 0-75.068 11.028-98.02 32.772l-0.332 0.304c-97.588 85.76-25.804 218.536 9.588 271.64 13.288 19.94 20.728 43.352 21.508 67.7 4.856 151.948 36.572 235.984 56.636 235.984 29.78 0 34.812-36.42 34.812-145.868 0-58.536 23.856-91.956 43.872-109.688 14.852-13.152 34.072-20.396 54.116-20.396z" fill="#504774" p-id="2202"></path><path d="M797.852 393.868h-0.008c-47.196 0-96.748-22.484-135.94-61.68-44.396-44.396-67.524-103.716-60.356-154.816a12.004 12.004 0 0 1 10.344-10.236c13.376-1.728 26.396-2.604 38.7-2.604 48.312 0 86.772 13.188 114.316 39.184 50.976 44.904 68.432 107.44 50.484 180.872a11.996 11.996 0 0 1-11.108 9.136 142.84 142.84 0 0 1-6.432 0.144z m-173.432-204.004c-2.332 41.684 17.972 88.88 54.448 125.356 33.168 33.164 75.964 53.38 115.248 54.588 12.468-61.036-2.72-110.864-45.224-148.212a11.952 11.952 0 0 1-0.332-0.304c-22.944-21.74-55.912-32.76-97.972-32.76-8.376 0-17.148 0.448-26.168 1.332z" fill="#504774" p-id="2203"></path><path d="M696.688 309.404a12.008 12.008 0 0 1-8.532-20.436l119.504-120.872a12 12 0 0 1 17.068 16.876L705.224 305.84a11.964 11.964 0 0 1-8.536 3.564z" fill="#504774" p-id="2204"></path><path d="M744.232 309.404h-47.544a12 12 0 0 1-12-12V247.288a12 12 0 1 1 24 0v38.112h35.544a12 12 0 1 1 0 24.004z" fill="#504774" p-id="2205"></path></svg>